<?xml version="1.0" encoding="utf-8"?>
<!-- Generator: Adobe Illustrator 24.2.0, SVG Export Plug-In . SVG Version: 6.00 Build 0)  -->
<svg version="1.1" id="Layer_1" xmlns="http://www.w3.org/2000/svg" xmlns:xlink="http://www.w3.org/1999/xlink" x="0px" y="0px"
	 viewBox="0 0 300 108" style="enable-background:new 0 0 300 108;" xml:space="preserve">
<style type="text/css">
	.st0{fill:#CE0E2D;}
	.st1{fill:#FFFFFF;}
</style>
<g>
	<g>
		<path class="st0" d="M75.7,89.9l16.1,0c0,0,0.1,0,0.1,0.1v2.7c0,0,0,0.1-0.1,0.1l-12.4,0v1.8l9.1,0c0,0,0.1,0,0.1,0.1V97
			c0,0,0,0.1-0.1,0.1l-9.1,0v4.6c0,0,0,0.1-0.1,0.1h-3.7c0,0-0.1,0-0.1-0.1L75.7,89.9C75.6,89.9,75.6,89.9,75.7,89.9z"/>
		<path class="st0" d="M130,89.9h3.7c0,0,0.1,0,0.1,0.1l0,11.7c0,0,0,0.1-0.1,0.1H130c0,0-0.1,0-0.1-0.1L130,89.9
			C130,89.9,130,89.9,130,89.9z"/>
		<path class="st0" d="M174.2,89.9h3.7c0,0,0.1,0,0.1,0.1l0,8.9l12.4,0c0,0,0.1,0,0.1,0v2.7c0,0,0,0.1-0.1,0.1l-16.1,0
			c0,0-0.1,0-0.1-0.1L174.2,89.9C174.2,89.9,174.2,89.9,174.2,89.9z"/>
		<path class="st0" d="M225.3,89.8h3.8l5,5.8c3.3-3.9,5-5.8,5-5.8h3.8c0,0,0,0,0,0.1l0,11.7c0,0,0,0.1,0,0.1h-3.7c0,0-0.1,0-0.1-0.1
			v-6.9l-5,5.8h-0.1c0,0-1.7-1.9-5.1-5.8v6.9c0,0,0,0.1-0.1,0.1h-3.7c0,0-0.1,0-0.1-0.1L225.3,89.8
			C225.2,89.9,225.2,89.8,225.3,89.8z"/>
	</g>
	<g>
		<path class="st1" d="M278.9,85.4c-0.5-0.9-6.8-11.7-19-32.3c-1.7-2.9-5.3-8.9-7.6-12.8c-1.1-1.9-3.1-2.9-5.3-2.9h-3.7h-8.3
			c-0.5,0.7-18.4,31.4-28.3,48.1c3,0,17.8,0,17.8,0c0.2-0.2,3-5,6.3-10.7h23.8c7.9,13.5,12.4,21.1,14,23.9c1.9,2.6,3.3,2.9,6.7,2.9
			l12.8,0L278.9,85.4z M237.1,64.4c1.7-2.9,3.6-6.2,5.7-9.7c0.1,0,4.3,7.1,5.8,9.7H237.1z"/>
		<path class="st1" d="M284.1,85.5h9.3V43.4c0-3.2-2.6-5.9-5.8-6h-9.5v42C278.1,82.8,280.8,85.5,284.1,85.5z"/>
		<path class="st1" d="M83.7,47.9c3.1,1.9,5.4,4.6,6.7,7.8l0-12.2c0-3.4-2.7-6.2-6.1-6.2c-4.1,0-8.7,0-8.7,0s0,4.5,0,6.6
			c2.9,1.4,5.5,2.7,7.9,3.8L83.7,47.9z"/>
		<path class="st1" d="M131.8,37.4c-3.4,0-4.2,0-6.2,0c0,0,0,27.7,0,30.7s-2.7,6.1-6.1,6.1s-23.8,0-23.8,0c-2.5,0-5.3-2.8-5.3-6
			c-1.4,2.7-3.5,4.4-6.7,6.3l-8.2,4.8c0,3,1.8,5.9,5.7,6.3h59.5V43.5c0-3.3-2.7-6.1-6.1-6.1L131.8,37.4L131.8,37.4z"/>
	</g>
	<g>
		<path class="st0" d="M73.5,77.1l8.7-5.1c8.3-4.9,8.3-16.6,0-21.5c0,0-57.6-26.8-66.3-34.1c-4.6-3.9-6.7-8-8.4-10.5
			C7,5.2,5.9,5.5,5.9,6.3l0,21.5c0,4.3,2.6,8.1,6.7,9.7L64.4,58c0.2,0.1,0.3,0.1,0.5,0.2l0.8,0.3c0.3,0.1,0.5,0.2,0.7,0.4
			C71.4,61.6,74.9,67.1,73.5,77.1z"/>
		<g>
			<path class="st0" d="M20.7,82.6c1.8,2.1,4.2,2.4,5.8,2.4c1.4,0,2.9-0.2,4.7-1.1c1.1-0.6,6.1-3.2,9.2-5.1
				c-3.3,0.5-8.9,1.8-13.1-0.7c-3.6-2.1-4.1-3.6-7.5-19.6c-0.2-0.9-1.6-0.8-1.6,0.2l0,17c0,0,0,0.4,0,1.5
				C18.2,78.2,18.8,80.4,20.7,82.6z"/>
		</g>
		<path class="st1" d="M70.6,76.6c0.8-6-0.2-10.4-3-13.2c-0.3,0.5-0.7,1-1.3,1.4c0,0-28.6,20-34.2,22.2c-5.3,2.1-11.1,2.4-14-2.9
			c0,1.3,0,7.2,0,7.2c0,11.8,7.8,13.2,20.5,6l31.6-18.3L70.6,76.6z"/>
	</g>
	<path class="st1" d="M204.3,61.3c3.7-2.9,5.6-6.5,5.6-10.1c0-3.6-0.8-5.4-2.5-7.7c-3.4-4.4-7.1-6-12.8-6h-50.8v42.1
		c0,3.3,2.7,6,6,6h46.5c1.7,0,4.5-0.8,7-2.4c4-2.6,6.6-6.2,6.6-10.3C209.9,67.3,207.9,64.8,204.3,61.3z M159.2,48.8h31.8l0,0l0,0h0
		l0,0c2,0,3.7,1.6,3.7,3.7s-1.7,3.7-3.7,3.7h0h-31.8V48.8z M191.6,74.1c-0.3,0-0.8,0.1-1.2,0.1h-31.2v-7.4h31.2c0.4,0,1,0,1,0
		c2,0,3.7,1.6,3.7,3.7C195.1,72.4,193.5,74,191.6,74.1z"/>
</g>
</svg>
